<svg width="900" height="600" viewBox="0 0 900 600" fill="none" xmlns="http://www.w3.org/2000/svg"><g clip-path="url(#a)"><path fill="transparent" d="M0 0h900v600H0z"/><circle cx="340.155" cy="228.722" r="9.993" transform="rotate(180 340.155 228.722)" fill="current"/><mask id="f" fill="#fff"><path fill-rule="evenodd" clip-rule="evenodd" d="M577.375 468.81c-43.399 32.265-101.613 42.907-156.334 23.282-86.922-31.172-132.116-126.906-100.944-213.828 31.172-86.921 126.906-132.115 213.828-100.943 86.922 31.172 132.116 126.906 100.944 213.828a168.757 168.757 0 0 1-9.035 20.724l19.773 65.549c1.8 5.968-3.807 11.52-9.758 9.661l-58.474-18.273z"/></mask><path d="m577.375 468.81 3.579-11.454-5.833-1.823-4.905 3.646 7.159 9.631zm-156.334 23.282-4.051 11.296 4.051-11.296zM320.097 278.264l-11.295-4.05 11.295 4.05zm314.772 112.885 11.295 4.051-11.295-4.051zm-9.035 20.724-10.653-5.524-2.243 4.325 1.407 4.665 11.489-3.466zm19.773 65.549-11.489 3.465 11.489-3.465zm-9.758 9.661-3.579 11.453 3.579-11.453zm-65.633-27.904c-40.314 29.972-94.341 39.83-145.124 21.618l-8.102 22.591c58.66 21.037 121.06 9.611 167.545-24.948l-14.319-19.261zm-145.124 21.618c-80.684-28.935-122.634-117.798-93.699-198.482l-22.591-8.101c-33.41 93.16 15.028 195.765 108.188 229.174l8.102-22.591zm-93.699-198.482c28.935-80.683 117.798-122.633 198.481-93.698l8.102-22.592c-93.16-33.409-195.765 15.028-229.174 108.189l22.591 8.101zm198.481-93.698c80.684 28.935 122.634 117.798 93.699 198.481l22.591 8.102c33.41-93.16-15.028-195.765-108.188-229.175l-8.102 22.592zm93.699 198.481a156.847 156.847 0 0 1-8.392 19.251l21.305 11.049a180.661 180.661 0 0 0 9.678-22.198l-22.591-8.102zm-9.228 28.241 19.773 65.548 22.977-6.931-19.773-65.548-22.977 6.931zm19.773 65.548c-.98-3.248 2.072-6.27 5.311-5.258l-7.159 22.907c15.139 4.731 29.406-9.395 24.825-24.58l-22.977 6.931zm5.311-5.258-58.475-18.273-7.158 22.907 58.474 18.273 7.159-22.907z" fill="#E1E4E5" mask="url(#f)"/><path d="M261.657 352.382c31.172 86.922 126.906 132.116 213.828 100.944 86.922-31.173 132.116-126.907 100.944-213.828-31.173-86.922-126.907-132.116-213.828-100.944-86.922 31.172-132.116 126.906-100.944 213.828z" fill="current"/><rect x="326.86" y="372.656" width="70.805" height="17.091" rx="8.545" transform="rotate(-90 326.86 372.656)" fill="#fff"/><rect x="374.47" y="372.655" width="95.221" height="17.091" rx="8.545" transform="rotate(-90 374.47 372.655)" fill="#fff"/><rect x="422.081" y="372.655" width="122.078" height="15.87" rx="7.935" transform="rotate(-90 422.081 372.655)" fill="#fff"/><rect x="468.968" y="372.655" width="156.363" height="16.096" rx="8.048" transform="rotate(-90 468.968 372.655)" fill="#fff"/><path d="M285.052 364.594c-4.191-4.006-11.135-2.178-12.809 3.373l-21.324 70.688c-1.8 5.969 3.807 11.521 9.758 9.661l71.803-22.438c5.649-1.765 7.329-8.945 3.051-13.034l-50.479-48.25z" fill="current"/></g><defs><linearGradient id="b" x1="454.525" y1="715.745" x2="464.516" y2="-259.291" gradientUnits="userSpaceOnUse"><stop stop-color="#fff"/><stop offset="1" stop-color="#EEE"/></linearGradient><linearGradient id="c" x1="595.769" y1="358.866" x2="490.578" y2="-113.816" gradientUnits="userSpaceOnUse"><stop stop-color="#fff"/><stop offset="1" stop-color="#EEE"/></linearGradient><linearGradient id="d" x1="669.675" y1="300.799" x2="853.052" y2="155.746" gradientUnits="userSpaceOnUse"><stop stop-color="#fff"/><stop offset="1" stop-color="#EEE"/></linearGradient><linearGradient id="e" x1="213.903" y1="391.224" x2="23.172" y2="214.01" gradientUnits="userSpaceOnUse"><stop stop-color="#fff"/><stop offset="1" stop-color="#EEE"/></linearGradient><clipPath id="a"><path fill="#fff" d="M0 0h900v600H0z"/></clipPath></defs></svg>