<svg xmlns="http://www.w3.org/2000/svg" data-name="Layer 1" width="1124" height="776" viewBox="0 0 1124 776" xmlns:xlink="http://www.w3.org/1999/xlink"><title>light_the_fire</title><ellipse cx="562" cy="739" rx="562" ry="37" fill="#3f3d56"/><ellipse cx="534" cy="216" rx="58" ry="53" fill="current"/><path d="M674.5,763.5s-123.5,49.5-211,1l.81-14,7.54-130,7.13-123,8.52-147h164l7.88,147,6.6,123,6.97,130Z" transform="translate(-38 -62)" fill="#3f3d56"/><path d="M463.5,350.5" transform="translate(-38 -62)" fill="none" stroke="#2f2e41" stroke-miterlimit="10"/><path d="M674.5,763.5s-113.5,50.5-211,1l.81-14H672.95Z" transform="translate(-38 -62)" fill="current"/><polygon points="627.98 558.5 433.85 558.5 440.98 435.5 621.38 435.5 627.98 558.5" fill="current"/><rect x="439.5" y="272.5" width="184" height="20" fill="#3f3d56"/><rect x="439.5" y="205.5" width="184" height="20" fill="#3f3d56"/><rect x="455.5" y="225.5" width="11" height="52" fill="#3f3d56"/><rect x="484.5" y="225.5" width="11" height="52" fill="#3f3d56"/><rect x="513.5" y="225.5" width="11" height="52" fill="#3f3d56"/><rect x="542.5" y="225.5" width="11" height="52" fill="#3f3d56"/><rect x="571.5" y="225.5" width="11" height="52" fill="#3f3d56"/><rect x="484.5" y="146" width="11" height="68.5" fill="#3f3d56"/><rect x="513.5" y="146" width="11" height="68.5" fill="#3f3d56"/><rect x="542.5" y="146" width="11" height="68.5" fill="#3f3d56"/><rect x="571.5" y="146" width="11" height="68.5" fill="#3f3d56"/><rect x="600.5" y="225.5" width="11" height="52" fill="#3f3d56"/><rect x="456" y="154" width="11" height="61" fill="#3f3d56"/><rect x="601" y="154" width="11" height="61" fill="#3f3d56"/><polygon points="624 165.5 440 165.5 440 105.5 532 31 624 105.5 624 165.5" fill="#3f3d56"/><circle cx="534" cy="215" r="154.69512" fill="current" opacity="0.3"/><circle cx="534" cy="215" r="215" fill="current" opacity="0.3"/></svg>