<svg width="540" height="440" xmlns="http://www.w3.org/2000/svg" data-name="Layer 1">
 <g>
  <title>Layer 1</title>
  <path d="m366.76266,435.23261a6.78564,6.78564 0 0 1 -3.34668,-0.88574l-193.49607,-109.39551a6.828,6.828 0 0 1 -2.58008,-9.293l152.40283,-269.56589a6.81755,6.81755 0 0 1 9.29248,-2.58008l193.49561,109.39551a6.82785,6.82785 0 0 1 2.58105,9.29248l-152.40332,269.56543a6.776,6.776 0 0 1 -4.11182,3.21582a6.85621,6.85621 0 0 1 -1.834,0.25098z" fill="#e6e6e6" id="svg_1"/>
  <rect x="437.55824" y="707.11353" width="1.57992" height="234.91839" fill="#fff" transform="rotate(-60.5178 -180.74 488.838)" id="svg_2"/>
  <rect x="394.90387" y="732.25804" width="1.57992" height="234.91839" fill="#fff" transform="rotate(-60.5178 -209.399 489.226)" id="svg_3"/>
  <rect x="352.24951" y="757.40256" width="1.57992" height="234.91839" fill="#fff" transform="rotate(-60.5178 -238.057 489.615)" id="svg_4"/>
  <rect x="309.59512" y="782.54707" width="1.57992" height="234.91839" fill="#fff" transform="rotate(-60.5178 -266.715 490.003)" id="svg_5"/>
  <rect x="266.94076" y="807.69157" width="1.57992" height="234.91839" fill="#fff" transform="rotate(-60.5178 -295.373 490.392)" id="svg_6"/>
  <rect x="224.28637" y="832.83608" width="1.57992" height="234.91839" fill="#fff" transform="rotate(-60.5178 -324.032 490.78)" id="svg_7"/>
  <rect x="181.63202" y="857.9806" width="1.57992" height="234.91839" fill="#fff" transform="rotate(-60.5178 -352.69 491.169)" id="svg_8"/>
  <rect x="138.97764" y="883.12511" width="1.57992" height="234.91839" fill="#fff" transform="rotate(-60.5178 -381.348 491.557)" id="svg_9"/>
  <rect x="96.32328" y="908.26962" width="1.57992" height="234.91839" fill="#fff" transform="rotate(-60.5178 -410.006 491.946)" id="svg_10"/>
  <rect x="53.6689" y="933.41414" width="1.57992" height="234.91839" fill="#fff" transform="rotate(-60.5178 -438.664 492.334)" id="svg_11"/>
  <rect x="11.01454" y="958.55865" width="1.57992" height="234.91839" fill="#fff" transform="rotate(-60.5178 -467.323 492.723)" id="svg_12"/>
  <path d="m348.76266,394.23261a6.78564,6.78564 0 0 1 -3.34668,-0.88574l-193.49607,-109.39551a6.828,6.828 0 0 1 -2.58008,-9.293l152.40283,-269.56589a6.81755,6.81755 0 0 1 9.29248,-2.58008l193.49561,109.39551a6.82785,6.82785 0 0 1 2.58105,9.29248l-152.40332,269.56543a6.776,6.776 0 0 1 -4.11182,3.21582a6.85621,6.85621 0 0 1 -1.834,0.25098z" fill="#f2f2f2" id="svg_13"/>
  <rect x="446.10785" y="629.62268" width="1.57992" height="234.91839" fill="#fff" transform="rotate(-60.5178 -154.191 452.347)" id="svg_14"/>
  <rect x="403.45348" y="654.76719" width="1.57992" height="234.91839" fill="#fff" transform="rotate(-60.5178 -182.849 452.735)" id="svg_15"/>
  <rect x="360.79911" y="679.91171" width="1.57992" height="234.91839" fill="#fff" transform="rotate(-60.5178 -211.507 453.124)" id="svg_16"/>
  <rect x="318.14474" y="705.05622" width="1.57992" height="234.91839" fill="#fff" transform="rotate(-60.5178 -240.165 453.512)" id="svg_17"/>
  <rect x="275.49035" y="730.20073" width="1.57992" height="234.91839" fill="#fff" transform="rotate(-60.5178 -268.824 453.901)" id="svg_18"/>
  <rect x="232.836" y="755.34524" width="1.57992" height="234.91839" fill="#fff" transform="rotate(-60.5178 -297.482 454.289)" id="svg_19"/>
  <rect x="190.18161" y="780.48976" width="1.57992" height="234.91839" fill="#fff" transform="rotate(-60.5178 -326.14 454.678)" id="svg_20"/>
  <rect x="147.52726" y="805.63427" width="1.57992" height="234.91839" fill="#fff" transform="rotate(-60.5178 -354.798 455.066)" id="svg_21"/>
  <rect x="104.87288" y="830.77878" width="1.57992" height="234.91839" fill="#fff" transform="rotate(-60.5178 -383.457 455.455)" id="svg_22"/>
  <rect x="62.21852" y="855.92329" width="1.57992" height="234.91839" fill="#fff" transform="rotate(-60.5178 -412.115 455.843)" id="svg_23"/>
  <rect x="19.56413" y="881.0678" width="1.57992" height="234.91839" fill="#fff" transform="rotate(-60.5178 -440.773 456.232)" id="svg_24"/>
  <path d="m329.48051,0.00001l-309.237,0l0,430l309.237,0a4.18841,4.18841 0 0 0 4.18832,-4.18831l0,-421.62338a4.18841,4.18841 0 0 0 -4.18832,-4.18831zm-291.78571,418.13312a7.67858,7.67858 0 1 1 7.67857,-7.67857a7.67854,7.67854 0 0 1 -7.67857,7.67857zm0,-39.09091a7.67857,7.67857 0 1 1 7.67857,-7.67857a7.67854,7.67854 0 0 1 -7.67857,7.6786l0,-0.00003zm0,-39.09091a7.67857,7.67857 0 1 1 7.67857,-7.67857a7.67854,7.67854 0 0 1 -7.67857,7.67857zm0,-39.09091a7.67857,7.67857 0 1 1 7.67857,-7.67857a7.67854,7.67854 0 0 1 -7.67857,7.67857zm0,-39.09091a7.67857,7.67857 0 1 1 7.67857,-7.67857a7.67854,7.67854 0 0 1 -7.67857,7.67857zm0,-39.09091a7.67857,7.67857 0 1 1 7.67857,-7.67857a7.67854,7.67854 0 0 1 -7.67857,7.67857zm0,-39.09091a7.67857,7.67857 0 1 1 7.67857,-7.67857a7.67854,7.67854 0 0 1 -7.67857,7.67857zm0,-39.09091a7.67857,7.67857 0 1 1 7.67857,-7.67857a7.67854,7.67854 0 0 1 -7.67857,7.67857zm0,-39.09091a7.67857,7.67857 0 1 1 7.67857,-7.67857a7.67854,7.67854 0 0 1 -7.67857,7.67857zm0,-39.0909a7.67858,7.67858 0 1 1 7.67857,-7.67858a7.67855,7.67855 0 0 1 -7.67857,7.67858zm0,-39.09091a7.67858,7.67858 0 1 1 7.67857,-7.67858a7.67855,7.67855 0 0 1 -7.67857,7.67858z" fill="#3f3d56" id="svg_25"/>
  <path d="m20.2435,23.73378c-2.072,0 -20.2435,-0.09783 -20.2435,-3.49026s18.1715,-3.49026 20.2435,-3.49026l0,1.3961c-10.70281,0 -17.64268,1.19807 -18.76031,2.09416c1.11763,0.89608 8.0575,2.09415 18.76031,2.09415c10.67895,0 17.61167,-1.193 18.75265,-2.088c-0.543,-0.38345 -2.76111,-1.18716 -8.71065,-1.7015l0.12015,-1.39065c10.08136,0.8712 10.08136,2.48033 10.08136,3.086c0,3.39243 -18.17151,3.49026 -20.24351,3.49026z" fill="#2f2e41" id="svg_26"/>
  <path d="m20.2435,62.12663c-2.072,0 -20.2435,-0.09782 -20.2435,-3.49026s18.1715,-3.49026 20.2435,-3.49026l0,1.39614c-10.70281,0 -17.64268,1.19807 -18.76031,2.09415c1.11763,0.89609 8.0575,2.09416 18.76031,2.09416c10.67895,0 17.61167,-1.193 18.75265,-2.088c-0.543,-0.38345 -2.76111,-1.18717 -8.71065,-1.7015l0.12015,-1.39065c10.08136,0.8712 10.08136,2.48033 10.08136,3.086c0,3.3924 -18.17151,3.49022 -20.24351,3.49022z" fill="#2f2e41" id="svg_27"/>
  <path d="m20.2435,101.21754c-2.072,0 -20.2435,-0.09782 -20.2435,-3.49026s18.1715,-3.49026 20.2435,-3.49026l0,1.39611c-10.70281,0 -17.64268,1.19807 -18.76031,2.09415c1.11763,0.89609 8.0575,2.09416 18.76031,2.09416c10.67895,0 17.61167,-1.193 18.75265,-2.088c-0.543,-0.38345 -2.76111,-1.18717 -8.71065,-1.7015l0.12015,-1.39065c10.08136,0.8712 10.08136,2.48033 10.08136,3.086c0,3.39243 -18.17151,3.49025 -20.24351,3.49025z" fill="#2f2e41" id="svg_28"/>
  <path d="m20.2435,140.30845c-2.072,0 -20.2435,-0.09782 -20.2435,-3.49026s18.1715,-3.49026 20.2435,-3.49026l0,1.39611c-10.70281,0 -17.64268,1.19807 -18.76031,2.09415c1.11763,0.89609 8.0575,2.09416 18.76031,2.09416c10.67895,0 17.61167,-1.193 18.75265,-2.088c-0.543,-0.38345 -2.76111,-1.18717 -8.71065,-1.7015l0.12015,-1.39065c10.08136,0.8712 10.08136,2.48033 10.08136,3.086c0,3.39243 -18.17151,3.49025 -20.24351,3.49025z" fill="#2f2e41" id="svg_29"/>
  <path d="m20.2435,179.39936c-2.072,0 -20.2435,-0.09782 -20.2435,-3.49026s18.1715,-3.49026 20.2435,-3.49026l0,1.39611c-10.70281,0 -17.64268,1.19807 -18.76031,2.09415c1.11763,0.89608 8.0575,2.09416 18.76031,2.09416c10.67895,0 17.61167,-1.193 18.75265,-2.088c-0.543,-0.38345 -2.76111,-1.18717 -8.71065,-1.70151l0.12015,-1.39065c10.08136,0.87121 10.08136,2.48034 10.08136,3.086c0,3.39244 -18.17151,3.49026 -20.24351,3.49026z" fill="#2f2e41" id="svg_30"/>
  <path d="m20.2435,218.49025c-2.072,0 -20.2435,-0.09782 -20.2435,-3.49026s18.1715,-3.49026 20.2435,-3.49026l0,1.3961c-10.70281,0 -17.64268,1.19808 -18.76031,2.09416c1.11763,0.89608 8.0575,2.09416 18.76031,2.09416c10.67895,0 17.61167,-1.193 18.75265,-2.088c-0.543,-0.38346 -2.76111,-1.18717 -8.71065,-1.70151l0.12015,-1.39065c10.08136,0.87121 10.08136,2.48034 10.08136,3.086c0,3.39246 -18.17151,3.49026 -20.24351,3.49026z" fill="#2f2e41" id="svg_31"/>
  <path d="m20.2435,257.58118c-2.072,0 -20.2435,-0.09782 -20.2435,-3.49026s18.1715,-3.49026 20.2435,-3.49026l0,1.3961c-10.70281,0 -17.64268,1.19808 -18.76031,2.09416c1.11763,0.89608 8.0575,2.09416 18.76031,2.09416c10.67895,0 17.61167,-1.193 18.75265,-2.088c-0.543,-0.38345 -2.76111,-1.18716 -8.71065,-1.7015l0.12015,-1.39065c10.08136,0.8712 10.08136,2.48034 10.08136,3.086c0,3.39243 -18.17151,3.49025 -20.24351,3.49025z" fill="#2f2e41" id="svg_32"/>
  <path d="m20.2435,296.67209c-2.072,0 -20.2435,-0.09782 -20.2435,-3.49026s18.1715,-3.49026 20.2435,-3.49026l0,1.3961c-10.70281,0 -17.64268,1.19808 -18.76031,2.09416c1.11763,0.89608 8.0575,2.09415 18.76031,2.09415c10.67895,0 17.61167,-1.193 18.75265,-2.088c-0.543,-0.38345 -2.76111,-1.18716 -8.71065,-1.7015l0.12015,-1.39065c10.08136,0.8712 10.08136,2.48034 10.08136,3.086c0,3.39242 -18.17151,3.49026 -20.24351,3.49026z" fill="#2f2e41" id="svg_33"/>
  <path d="m20.2435,335.763c-2.072,0 -20.2435,-0.09783 -20.2435,-3.49026s18.1715,-3.49026 20.2435,-3.49026l0,1.3961c-10.70281,0 -17.64268,1.19807 -18.76031,2.09416c1.11763,0.89608 8.0575,2.09415 18.76031,2.09415c10.67895,0 17.61167,-1.193 18.75265,-2.088c-0.543,-0.38345 -2.76111,-1.18716 -8.71065,-1.7015l0.12015,-1.39065c10.08136,0.8712 10.08136,2.48033 10.08136,3.086c0,3.39243 -18.17151,3.49026 -20.24351,3.49026z" fill="#2f2e41" id="svg_34"/>
  <path d="m20.2435,374.85391c-2.072,0 -20.2435,-0.09783 -20.2435,-3.49026s18.1715,-3.49026 20.2435,-3.49026l0,1.3961c-10.70281,0 -17.64268,1.19807 -18.76031,2.09416c1.11763,0.89608 8.0575,2.09415 18.76031,2.09415c10.67895,0 17.61167,-1.193 18.75265,-2.088c-0.543,-0.38345 -2.76111,-1.18716 -8.71065,-1.7015l0.12015,-1.39065c10.08136,0.8712 10.08136,2.48033 10.08136,3.086c0,3.39243 -18.17151,3.49026 -20.24351,3.49026z" fill="#2f2e41" id="svg_35"/>
  <path d="m20.2435,413.94482c-2.072,0 -20.2435,-0.09783 -20.2435,-3.49026s18.1715,-3.49026 20.2435,-3.49026l0,1.3961c-10.70281,0 -17.64268,1.19807 -18.76031,2.09416c1.11763,0.89608 8.0575,2.09415 18.76031,2.09415c10.67895,0 17.61167,-1.193 18.75265,-2.088c-0.543,-0.38345 -2.76111,-1.18716 -8.71065,-1.7015l0.12015,-1.39065c10.08136,0.8712 10.08136,2.48033 10.08136,3.086c0,3.39243 -18.17151,3.49026 -20.24351,3.49026z" fill="#2f2e41" id="svg_36"/>
  <path d="m266.30681,164.39125l-153.57143,0a4.54253,4.54253 0 0 1 -4.53733,-4.53733l0,-60.03248a4.54253,4.54253 0 0 1 4.53733,-4.53734l153.57143,0a4.54248,4.54248 0 0 1 4.53734,4.53734l0,60.03247a4.54248,4.54248 0 0 1 -4.53734,4.53734z" fill="#fff" id="svg_37"/>
  <path d="m209.06655,115.87663l-39.09089,0a3.49026,3.49026 0 1 1 0,-6.98052l39.09091,0a3.49026,3.49026 0 0 1 0,6.98052l-0.00002,0z" fill="#e69215" id="svg_38"/>
  <path d="m230.70616,133.32793l-82.37013,0a3.49026,3.49026 0 0 1 0,-6.98052l82.37013,0a3.49026,3.49026 0 0 1 0,6.98052z" fill="#e69215" id="svg_39"/>
  <path d="m230.70616,150.77925l-82.37013,0a3.49026,3.49026 0 0 1 0,-6.98052l82.37013,0a3.49026,3.49026 0 0 1 0,6.98052z" fill="#e69215" id="svg_40"/>
 </g>

</svg>